<svg width="295" height="22" viewBox="0 0 295 22" fill="none" xmlns="http://www.w3.org/2000/svg">
<path d="M4.28 22C3.28 22 2.43 21.65 1.73 20.95C1.03 20.25 0.68 19.4 0.68 18.4V4C0.68 3 1.03 2.15 1.73 1.45C2.43 0.749999 3.28 0.399999 4.28 0.399999H18.68C19.68 0.399999 20.53 0.749999 21.23 1.45C21.93 2.15 22.28 3 22.28 4V4.87H19.85V4C19.85 3.68 19.73 3.41 19.49 3.19C19.27 2.95 19 2.83 18.68 2.83H4.28C3.96 2.83 3.68 2.95 3.44 3.19C3.22 3.41 3.11 3.68 3.11 4V18.4C3.11 18.72 3.22 19 3.44 19.24C3.68 19.46 3.96 19.57 4.28 19.57H18.68C19 19.57 19.27 19.46 19.49 19.24C19.73 19 19.85 18.72 19.85 18.4V13.06H14.51V10.6H22.28V18.4C22.28 19.4 21.93 20.25 21.23 20.95C20.53 21.65 19.68 22 18.68 22H4.28ZM27.4423 22V4C27.4423 3 27.7923 2.15 28.4923 1.45C29.1923 0.749999 30.0423 0.399999 31.0423 0.399999H45.4423C46.4423 0.399999 47.2923 0.749999 47.9923 1.45C48.6923 2.15 49.0423 3 49.0423 4V22H46.6123V14.11H29.8723V22H27.4423ZM29.8723 11.68H46.6123V4C46.6123 3.68 46.4923 3.41 46.2523 3.19C46.0323 2.95 45.7623 2.83 45.4423 2.83H31.0423C30.7223 2.83 30.4423 2.95 30.2023 3.19C29.9823 3.41 29.8723 3.68 29.8723 4V11.68ZM54.2605 22V0.399999H57.5905L66.5605 11.08L75.5305 0.399999H78.8605V22H76.4305V3.16L66.5605 14.89L56.6905 3.16V22H54.2605ZM83.9525 22V0.399999H103.663V2.83H86.3825V9.97H100.273V12.43H86.3825V19.57H103.663V22H83.9525ZM118.695 22V0.399999H138.405V2.83H121.125V9.97H135.015V12.43H121.125V22H118.695ZM142.175 22V4C142.175 3 142.525 2.15 143.225 1.45C143.925 0.749999 144.775 0.399999 145.775 0.399999H160.175C161.175 0.399999 162.025 0.749999 162.725 1.45C163.425 2.15 163.775 3 163.775 4V22H161.345V14.11H144.605V22H142.175ZM144.605 11.68H161.345V4C161.345 3.68 161.225 3.41 160.985 3.19C160.765 2.95 160.495 2.83 160.175 2.83H145.775C145.455 2.83 145.175 2.95 144.935 3.19C144.715 3.41 144.605 3.68 144.605 4V11.68ZM172.593 22C171.593 22 170.743 21.65 170.043 20.95C169.343 20.25 168.993 19.4 168.993 18.4V4C168.993 3 169.343 2.15 170.043 1.45C170.743 0.749999 171.593 0.399999 172.593 0.399999H190.533V2.83H172.593C172.273 2.83 171.993 2.95 171.753 3.19C171.533 3.41 171.423 3.68 171.423 4V18.4C171.423 18.72 171.533 19 171.753 19.24C171.993 19.46 172.273 19.57 172.593 19.57H190.533V22H172.593ZM203.981 22V2.83H194.381V0.399999H215.981V2.83H206.411V22H203.981ZM223.565 22C222.565 22 221.715 21.65 221.015 20.95C220.315 20.25 219.965 19.4 219.965 18.4V4C219.965 3 220.315 2.15 221.015 1.45C221.715 0.749999 222.565 0.399999 223.565 0.399999H237.965C238.965 0.399999 239.815 0.749999 240.515 1.45C241.215 2.15 241.565 3 241.565 4V18.4C241.565 19.4 241.215 20.25 240.515 20.95C239.815 21.65 238.965 22 237.965 22H223.565ZM223.565 19.57H237.965C238.285 19.57 238.555 19.46 238.775 19.24C239.015 19 239.135 18.72 239.135 18.4V4C239.135 3.68 239.015 3.41 238.775 3.19C238.555 2.95 238.285 2.83 237.965 2.83H223.565C223.245 2.83 222.965 2.95 222.725 3.19C222.505 3.41 222.395 3.68 222.395 4V18.4C222.395 18.72 222.505 19 222.725 19.24C222.965 19.46 223.245 19.57 223.565 19.57ZM246.638 22V0.429999H264.638C265.638 0.429999 266.488 0.789999 267.188 1.51C267.888 2.21 268.238 3.05 268.238 4.03V10.36C268.238 11.34 267.888 12.19 267.188 12.91C266.488 13.61 265.638 13.96 264.638 13.96H261.338L268.118 21.97V22H264.908L258.158 13.96L249.068 13.93V22H246.638ZM250.238 11.5H264.638C264.958 11.5 265.228 11.39 265.448 11.17C265.668 10.95 265.778 10.68 265.778 10.36V4.03C265.778 3.71 265.668 3.44 265.448 3.22C265.228 2.98 264.958 2.86 264.638 2.86H250.238C249.918 2.86 249.638 2.98 249.398 3.22C249.178 3.44 249.068 3.71 249.068 4.03V10.36C249.068 10.68 249.178 10.95 249.398 11.17C249.638 11.39 249.918 11.5 250.238 11.5ZM281.984 22V13.87L272.054 0.399999H274.844L283.214 10.96L291.494 0.399999H294.344L284.414 13.87V22H281.984Z" fill="black"/>
</svg>
